<svg width="38" height="43" viewBox="0 0 38 43" fill="none" xmlns="http://www.w3.org/2000/svg">
<g filter="url(#filter0_i_18_417)">
<path d="M16.3006 41.2753C17.8109 42.7608 20.2591 42.7608 21.7694 41.2753L36.0541 27.206C38.3371 24.9592 38.3371 21.317 36.0541 19.0702C33.7408 16.8954 30.0982 16.8954 27.785 19.0702L25.4644 21.3534L25.4644 6.6574C25.4644 3.15475 22.5784 0.315295 19.0183 0.315295C15.4582 0.315294 12.5722 3.15475 12.5722 6.6574L12.5722 21.3534L10.2516 19.0702C7.93841 16.8954 4.29579 16.8954 1.98256 19.0702C-0.300451 21.317 -0.300452 24.9592 1.98256 27.2059L16.3006 41.2753Z" fill="#CFCFCF"/>
</g>
<defs>
<filter id="filter0_i_18_417" x="-0.729706" y="-0.684708" width="38.496" height="43.0741" filterUnits="userSpaceOnUse" color-interpolation-filters="sRGB">
<feFlood flood-opacity="0" result="BackgroundImageFix"/>
<feBlend mode="normal" in="SourceGraphic" in2="BackgroundImageFix" result="shape"/>
<feColorMatrix in="SourceAlpha" type="matrix" values="0 0 0 0 0 0 0 0 0 0 0 0 0 0 0 0 0 0 127 0" result="hardAlpha"/>
<feOffset dx="-1" dy="-1"/>
<feGaussianBlur stdDeviation="0.5"/>
<feComposite in2="hardAlpha" operator="arithmetic" k2="-1" k3="1"/>
<feColorMatrix type="matrix" values="0 0 0 0 1 0 0 0 0 1 0 0 0 0 1 0 0 0 1 0"/>
<feBlend mode="normal" in2="shape" result="effect1_innerShadow_18_417"/>
</filter>
</defs>
</svg>
