<svg width="50" height="50" viewBox="0 0 50 50" fill="none" xmlns="http://www.w3.org/2000/svg">
<path d="M42.6777 7.32233C52.4408 17.0854 52.4408 32.9146 42.6777 42.6777C32.9146 52.4408 17.0854 52.4408 7.32233 42.6777C-2.44078 32.9146 -2.44078 17.0854 7.32233 7.32233C17.0854 -2.44078 32.9146 -2.44078 42.6777 7.32233Z" fill="#ECECEC"/>
<path d="M39.1422 10.8579C46.9527 18.6684 46.9527 31.3317 39.1422 39.1422C31.3317 46.9527 18.6684 46.9527 10.8579 39.1422C3.04745 31.3317 3.04745 18.6684 10.8579 10.8579C18.6684 3.04744 31.3317 3.04744 39.1422 10.8579Z" fill="#282828"/>
<path d="M32.0713 29.5853L27.4861 25.0002L32.0713 20.4151C32.7578 19.7286 32.7578 18.6156 32.0713 17.9291C31.3848 17.2427 30.2718 17.2427 29.5854 17.9291L25.0002 22.5143L20.4151 17.9291C19.7286 17.2427 18.6156 17.2427 17.9291 17.9291C17.2427 18.6156 17.2427 19.7286 17.9291 20.4151L22.5143 25.0002L17.9291 29.5853C17.2427 30.2718 17.2427 31.3848 17.9291 32.0713C18.6156 32.7577 19.7286 32.7577 20.4151 32.0713L25.0002 27.4861L29.5854 32.0713C30.2718 32.7577 31.3848 32.7577 32.0713 32.0713C32.7578 31.3848 32.7578 30.2718 32.0713 29.5853Z" fill="white"/>
</svg>
