<svg width="44" height="40" viewBox="0 0 44 40" fill="none" xmlns="http://www.w3.org/2000/svg">
<g clip-path="url(#clip0_14_289)">
<path fill-rule="evenodd" clip-rule="evenodd" d="M41.946 12.6741H28.0591C30.2499 10.7206 33.3495 9.01703 35.6344 8.09198C37.5425 7.31936 39.6806 6.63564 41.946 6.09366V12.6741ZM0.688021 31.499C2.85155 32.7316 6.59066 32.8105 9.81717 32.7621C9.77501 32.4198 9.75288 32.0715 9.75288 31.718C9.75288 27.042 13.5444 23.2504 18.2204 23.2504C22.8966 23.2504 26.688 27.0418 26.688 31.718C26.688 32.0528 26.668 32.383 26.63 32.7077L43.3968 32.7075V1.49818C28.3116 4.00605 23.0698 12.6741 23.0698 12.6741C10.4561 11.9402 2.80825 14.5648 0.84388 22.5103C0.986576 22.8195 1.10237 23.1552 1.19051 23.5107C1.61974 25.239 1.39692 27.4279 0.43811 29.2366C0.494769 29.9829 0.573749 30.6945 0.688021 31.499ZM8.47777 16.4355C10.4648 19.9562 9.85322 23.7789 2.91642 24.0914C2.84221 23.7926 2.74472 23.5103 2.62492 23.2502C3.43893 19.9577 5.41399 17.7519 8.47777 16.4355Z" fill="white"/>
<path fill-rule="evenodd" clip-rule="evenodd" d="M18.2204 24.7013C14.3453 24.7013 11.2039 27.8427 11.2039 31.718C11.2039 35.5931 14.3453 38.7346 18.2204 38.7346C22.0957 38.7346 25.2371 35.5931 25.2371 31.718C25.2371 27.8427 22.0957 24.7013 18.2204 24.7013ZM18.2204 28.6931C16.5498 28.6931 15.1957 30.0472 15.1957 31.718C15.1957 33.3884 16.5498 34.7427 18.2204 34.7427C19.891 34.7427 21.2453 33.3884 21.2453 31.718C21.2453 30.0472 19.891 28.6931 18.2204 28.6931Z" fill="white"/>
</g>
<defs>
<clipPath id="clip0_14_289">
<rect width="43.0545" height="38.4" fill="white" transform="translate(0.400024 0.799999)"/>
</clipPath>
</defs>
</svg>
