<svg width="41" height="40" viewBox="0 0 41 40" fill="none" xmlns="http://www.w3.org/2000/svg">
<g clip-path="url(#clip0_14_271)">
<path fill-rule="evenodd" clip-rule="evenodd" d="M21.8027 24.9693C17.8821 24.9693 14.704 28.1474 14.704 32.0679C14.704 35.9883 17.8821 39.1664 21.8027 39.1664C25.7232 39.1664 28.9011 35.9883 28.9011 32.0679C28.9011 28.1474 25.7232 24.9693 21.8027 24.9693ZM21.8027 29.0077C20.1126 29.0077 18.7425 30.3776 18.7425 32.0679C18.7425 33.7578 20.1126 35.1279 21.8027 35.1279C23.4928 35.1279 24.8627 33.7578 24.8627 32.0679C24.8627 30.3776 23.4928 29.0077 21.8027 29.0077Z" fill="#4F4F4F"/>
<path fill-rule="evenodd" clip-rule="evenodd" d="M36.2854 21.0248C31.4634 21.4627 25.95 15.832 35.9994 14.2587C36.4404 15.4026 36.6948 16.521 36.6514 17.5398L36.2854 21.0248ZM37.7532 21.0248L38.1191 17.5398C38.265 14.1118 35.04 9.55434 32.6806 6.69855C29.7056 3.09721 28.8892 3.52181 24.4483 2.57921C16.5161 0.895107 8.15333 0.173103 0.19989 1.49533V32.6837H13.295C13.2568 32.3554 13.2363 32.4066 13.2363 32.0679C13.2363 27.3372 17.0719 23.5015 21.8027 23.5015C26.5333 23.5015 30.3691 27.3372 30.3691 32.0679C30.3691 32.4066 30.3486 32.7405 30.3104 33.069H33.0581C35.9616 33.069 37.8846 31.5387 38.9349 29.5576C39.9049 27.7278 40.1304 25.5133 39.6961 23.7648C39.6069 23.4052 39.4898 23.0655 39.3454 22.7527C38.9826 21.9662 38.4478 21.3509 37.7532 21.0248ZM31.3401 12.8017H11.2656V4.89151C19.1173 5.19278 26.7417 6.60572 31.3401 12.8017ZM7.89085 5.07158V12.8017H1.66764V6.14445C3.6669 5.66601 5.76421 5.29661 7.89085 5.07158Z" fill="#4F4F4F"/>
</g>
<defs>
<clipPath id="clip0_14_271">
<rect width="39.8706" height="38.4" fill="white" transform="translate(0.19989 0.799999)"/>
</clipPath>
</defs>
</svg>
