<svg width="24" height="24" viewBox="0 0 24 24" fill="none" xmlns="http://www.w3.org/2000/svg">
<path fill-rule="evenodd" clip-rule="evenodd" d="M10.2019 20.6754C10.571 21.0416 10.9457 21.404 11.336 21.7477C11.5126 21.9047 11.7452 22 12 22C12.2548 22 12.4874 21.9047 12.664 21.7477C13.0537 21.4031 13.4289 21.0417 13.7981 20.6754C14.4713 20.0074 15.3715 19.0625 16.2744 17.9575C17.1747 16.8555 18.0945 15.5743 18.7931 14.2337C19.4862 12.9035 20 11.4425 20 10C20 5.58172 16.4183 2 12 2C7.58172 2 4 5.58172 4 10C4 11.4425 4.51377 12.9035 5.20693 14.2337C5.90554 15.5743 6.82525 16.8555 7.72563 17.9575C8.62852 19.0625 9.52865 20.0074 10.2019 20.6754ZM9 10C9 8.34315 10.3431 7 12 7C13.6569 7 15 8.34315 15 10C15 11.6569 13.6569 13 12 13C10.3431 13 9 11.6569 9 10Z" fill="white"/>
</svg>
