<svg width="24" height="24" viewBox="0 0 24 24" fill="none" xmlns="http://www.w3.org/2000/svg">
<path d="M15 4.18995V19.81C15 21.3214 13.2302 22.533 11.6901 21.3214L6.127 16.5H4C2.96345 16.5 2 15.6595 2 14.5V9.49999C2 8.42889 2.88115 7.49999 4 7.49999H6.1265L11.6901 2.67857C13 1.54336 15 2.49999 15 4.18995ZM19.998 5.84022C21.2853 7.43015 22 9.41166 22 11.5C22 13.8486 21.0952 16.0575 19.504 17.7208C19.1222 18.1198 18.4892 18.1338 18.0901 17.7521C17.6911 17.3703 17.6771 16.7373 18.0588 16.3382C19.2974 15.0436 20 13.3283 20 11.5C20 9.87403 19.4452 8.33575 18.4436 7.09875C18.0961 6.66952 18.1623 6.03982 18.5915 5.69229C19.0208 5.34476 19.6504 5.41098 19.998 5.84022ZM18.1165 8.36476C18.6911 9.30072 19 10.3789 19 11.5C19 12.8891 18.5253 14.2082 17.6702 15.2671C17.3233 15.6968 16.6937 15.7638 16.264 15.4169C15.8343 15.0699 15.7672 14.4403 16.1142 14.0106C16.6845 13.3043 17 12.4277 17 11.5C17 10.7509 16.7947 10.0344 16.412 9.41106C16.1231 8.94038 16.2705 8.3246 16.7411 8.03567C17.2118 7.74674 17.8276 7.89408 18.1165 8.36476Z" fill="white"/>
</svg>
