<svg width="20" height="20" viewBox="0 0 20 20" fill="none" xmlns="http://www.w3.org/2000/svg">
<g clip-path="url(#clip0_21_493)">
<path d="M18.2425 8.24218H11.7581V1.7578C11.7581 0.786981 10.9711 -1.14441e-05 10.0003 -1.14441e-05C9.02947 -1.14441e-05 8.24247 0.786981 8.24247 1.7578V8.24218H1.7581C0.787278 8.24218 0.000286102 9.02917 0.000286102 9.99999C0.000286102 10.9708 0.787278 11.7578 1.7581 11.7578H8.24247V18.2422C8.24247 19.213 9.02947 20 10.0003 20C10.9711 20 11.7581 19.213 11.7581 18.2422V11.7578H18.2425C19.2133 11.7578 20.0003 10.9708 20.0003 9.99999C20.0003 9.02917 19.2133 8.24218 18.2425 8.24218Z" fill="white"/>
</g>
<defs>
<clipPath id="clip0_21_493">
<rect width="20" height="20" fill="white" transform="translate(0.000286102 -1.14441e-05)"/>
</clipPath>
</defs>
</svg>
