<svg width="19" height="18" viewBox="0 0 19 18" fill="none" xmlns="http://www.w3.org/2000/svg">
<g clip-path="url(#clip0_1432_674)">
<path d="M9.50015 1.49996C10.495 1.50323 11.4794 1.70377 12.3963 2.08998C13.3131 2.47619 14.1443 3.0404 14.8417 3.74996H12.5002C12.3012 3.74996 12.1105 3.82898 11.9698 3.96963C11.8292 4.11029 11.7502 4.30105 11.7502 4.49996C11.7502 4.69888 11.8292 4.88964 11.9698 5.03029C12.1105 5.17095 12.3012 5.24996 12.5002 5.24996H15.6074C15.9767 5.24976 16.3309 5.10297 16.592 4.84182C16.8532 4.58067 17 4.22653 17.0002 3.85721V0.749963C17.0002 0.551051 16.9211 0.360285 16.7805 0.219633C16.6398 0.0789805 16.4491 -3.71674e-05 16.2502 -3.71674e-05C16.0512 -3.71674e-05 15.8605 0.0789805 15.7198 0.219633C15.5792 0.360285 15.5002 0.551051 15.5002 0.749963V2.30846C14.2605 1.19205 12.7346 0.44277 11.0932 0.144525C9.45186 -0.153721 7.75987 0.0108468 6.20674 0.619799C4.65361 1.22875 3.30066 2.25804 2.29941 3.59241C1.29816 4.92677 0.688133 6.51352 0.537652 8.17496C0.527964 8.27941 0.540139 8.38472 0.573399 8.4842C0.606659 8.58368 0.660277 8.67514 0.730834 8.75275C0.801392 8.83037 0.887343 8.89243 0.983211 8.93499C1.07908 8.97756 1.18276 8.99968 1.28765 8.99996C1.47109 9.0023 1.6488 8.93609 1.786 8.8143C1.92319 8.6925 2.00999 8.52389 2.0294 8.34146C2.19636 6.47452 3.05538 4.73749 4.43771 3.47159C5.82004 2.20569 7.62576 1.50243 9.50015 1.49996Z" fill="white"/>
<path d="M17.7134 9.00006C17.5299 8.99772 17.3522 9.06393 17.215 9.18573C17.0778 9.30752 16.991 9.47614 16.9716 9.65856C16.8476 11.086 16.3168 12.4479 15.4421 13.5827C14.5674 14.7175 13.3855 15.5776 12.0367 16.061C10.6879 16.5443 9.22877 16.6306 7.83239 16.3097C6.436 15.9887 5.16099 15.2739 4.15862 14.2501H6.50012C6.69903 14.2501 6.8898 14.1711 7.03045 14.0304C7.1711 13.8898 7.25012 13.699 7.25012 13.5001C7.25012 13.3012 7.1711 13.1104 7.03045 12.9697C6.8898 12.8291 6.69903 12.7501 6.50012 12.7501H3.39287C3.20995 12.75 3.02879 12.7859 2.85977 12.8559C2.69075 12.9258 2.53718 13.0284 2.40783 13.1578C2.27848 13.2871 2.1759 13.4407 2.10594 13.6097C2.03598 13.7787 2.00002 13.9599 2.00012 14.1428V17.2501C2.00012 17.449 2.07914 17.6398 2.21979 17.7804C2.36044 17.9211 2.55121 18.0001 2.75012 18.0001C2.94903 18.0001 3.1398 17.9211 3.28045 17.7804C3.4211 17.6398 3.50012 17.449 3.50012 17.2501V15.6916C4.73974 16.808 6.26568 17.5573 7.90705 17.8555C9.54842 18.1538 11.2404 17.9892 12.7935 17.3802C14.3467 16.7713 15.6996 15.742 16.7009 14.4076C17.7021 13.0733 18.3121 11.4865 18.4626 9.82506C18.4723 9.72062 18.4601 9.6153 18.4269 9.51582C18.3936 9.41634 18.34 9.32489 18.2694 9.24727C18.1989 9.16966 18.1129 9.10759 18.0171 9.06503C17.9212 9.02247 17.8175 9.00034 17.7126 9.00006H17.7134Z" fill="white"/>
</g>
<defs>
<clipPath id="clip0_1432_674">
<rect width="18" height="18" fill="white" transform="translate(0.5)"/>
</clipPath>
</defs>
</svg>
