<svg width="24" height="24" viewBox="0 0 24 24" fill="none" xmlns="http://www.w3.org/2000/svg">
<g clip-path="url(#clip0_18_361)">
<path d="M23.5013 17.9977L15.0233 2.41286C13.6611 0.119683 10.3407 0.116637 8.9767 2.41286L0.499073 17.9977C-0.893396 20.3409 0.792463 23.3082 3.52167 23.3082H20.478C23.2049 23.3082 24.8938 20.3433 23.5013 17.9977ZM12 20.4957C11.2248 20.4957 10.5937 19.8647 10.5937 19.0894C10.5937 18.3142 11.2248 17.6832 12 17.6832C12.7752 17.6832 13.4062 18.3142 13.4062 19.0894C13.4062 19.8647 12.7752 20.4957 12 20.4957ZM13.4062 14.8707C13.4062 15.6459 12.7752 16.2769 12 16.2769C11.2248 16.2769 10.5937 15.6459 10.5937 14.8707V7.83943C10.5937 7.06421 11.2248 6.43318 12 6.43318C12.7752 6.43318 13.4062 7.06421 13.4062 7.83943V14.8707Z" fill="white"/>
</g>
<defs>
<clipPath id="clip0_18_361">
<rect width="24" height="24" fill="white"/>
</clipPath>
</defs>
</svg>
